<?xml version="1.0" standalone="no"?><!DOCTYPE svg PUBLIC "-//W3C//DTD SVG 1.1//EN" "http://www.w3.org/Graphics/SVG/1.1/DTD/svg11.dtd"><svg t="1567564615275" class="icon" viewBox="0 0 1024 1024" version="1.1" xmlns="http://www.w3.org/2000/svg" p-id="4040" xmlns:xlink="http://www.w3.org/1999/xlink" width="50" height="50"><defs><style type="text/css"></style></defs><path d="M512 0c-282.752 0-512 229.216-512 512s229.248 512 512 512 512-229.248 512-512c0-282.784-229.248-512-512-512zM512 983.04c-260.16 0-471.04-210.912-471.04-471.04s210.88-471.04 471.04-471.04c260.16 0 471.04 210.912 471.04 471.04s-210.88 471.04-471.04 471.04zM816.224 625.472c-14.08-82.336-73.248-136.288-73.248-136.288 8.448-74.72-22.56-88-22.56-88-6.528-231.264-204.224-227.2-208.416-227.104-4.16-0.096-201.92-4.16-208.416 227.104 0 0-31.008 13.28-22.56 88 0 0-59.2 53.888-73.28 136.288 0 0-7.52 139.104 67.616 17.024 0 0 16.928 46.336 47.904 87.968 0 0-55.424 18.944-50.72 68.128 0 0-1.888 54.88 118.368 51.104 0 0 84.544-6.624 109.888-42.592l22.336 0c25.376 35.968 109.92 42.592 109.92 42.592 120.192 3.776 118.336-51.104 118.336-51.104 4.704-49.184-50.72-68.128-50.72-68.128 31.04-41.632 47.904-87.968 47.904-87.968 75.168 122.08 67.648-17.024 67.648-17.024z" p-id="4041"></path></svg>