<?xml version="1.0" standalone="no"?><!DOCTYPE svg PUBLIC "-//W3C//DTD SVG 1.1//EN" "http://www.w3.org/Graphics/SVG/1.1/DTD/svg11.dtd"><svg t="1567564588341" class="icon" viewBox="0 0 1024 1024" version="1.1" xmlns="http://www.w3.org/2000/svg" p-id="3322" xmlns:xlink="http://www.w3.org/1999/xlink" width="50" height="50"><defs><style type="text/css"></style></defs><path d="M1024 512c0 282.773333-229.226667 512-512 512S0 794.773333 0 512 229.226667 0 512 0s512 229.226667 512 512z m-173.098667 100.288c0-90.410667-80.490667-164.416-182.506666-170.816-4.778667-0.256-9.557333-0.426667-14.336-0.426667-108.757333 0-196.864 76.672-196.864 171.242667 0 14.272 2.048 28.074667 5.845333 41.28 21.162667 74.645333 98.645333 129.984 191.018667 129.984 31.424 0 61.077333-6.378667 87.381333-17.792l44.181333 30.186667s11.797333 8.234667 10.645334-7.616l-12.501334-47.274667c41.173333-31.36 67.136-77.397333 67.136-128.768z m-196.842666-185.514667c4.245333 0 8.405333 0.192 12.586666 0.362667-16.213333-95.722667-110.976-169.216-225.472-169.216-125.824 0-227.84 88.810667-227.84 198.250667 0 61.013333 31.701333 115.562667 81.472 151.957333l-16.832 63.488s-5.76 21.077333 16.042667 11.605333l62.762667-42.858666c26.133333 9.130667 54.549333 14.165333 84.394666 14.165333 2.56 0 5.034667-0.170667 7.530667-0.170667a162.218667 162.218667 0 0 1-5.589333-42.069333c0-102.272 94.656-185.514667 210.944-185.514667z m-77.589334 160.384a34.986667 34.986667 0 0 1-34.773333-35.2c0-19.413333 15.616-35.114667 34.773333-35.114666 19.157333 0 34.773333 15.722667 34.773334 35.114666a34.986667 34.986667 0 0 1-34.773334 35.2z m167.616 0a34.986667 34.986667 0 0 1-34.773333-35.242666c0-19.392 15.616-35.093333 34.773333-35.093334 19.178667 0 34.773333 15.701333 34.773334 35.093334a34.986667 34.986667 0 0 1-34.773334 35.221333z m-409.728-158.08a34.986667 34.986667 0 0 1-34.773333-35.221333c0-19.413333 15.616-35.114667 34.773333-35.114667 19.178667 0 34.773333 15.722667 34.773334 35.114667a34.986667 34.986667 0 0 1-34.773334 35.2z m205.76-0.042666a34.986667 34.986667 0 0 1-34.773333-35.2c0-19.413333 15.616-35.114667 34.773333-35.114667 19.157333 0 34.773333 15.701333 34.773334 35.093333a34.986667 34.986667 0 0 1-34.773334 35.221334z" p-id="3323"></path></svg>