<?xml version="1.0" standalone="no"?><!DOCTYPE svg PUBLIC "-//W3C//DTD SVG 1.1//EN" "http://www.w3.org/Graphics/SVG/1.1/DTD/svg11.dtd"><svg t="1567564633181" class="icon" viewBox="0 0 1024 1024" version="1.1" xmlns="http://www.w3.org/2000/svg" p-id="4788" xmlns:xlink="http://www.w3.org/1999/xlink" width="50" height="50"><defs><style type="text/css"></style></defs><path d="M411.196235 608a44.167529 44.167529 0 0 0-52.163764 17.603765 32.015059 32.015059 0 0 0 11.836235 46.396235 44.167529 44.167529 0 0 0 53.443765-17.287529 32.015059 32.015059 0 0 0-13.116236-46.682353z m44.16753-18.236235a16.64 16.64 0 0 0-19.576471 7.363764 11.52 11.52 0 0 0 5.12 17.28753 16.564706 16.564706 0 0 0 20.163765-7.363765 11.52 11.52 0 0 0-5.436235-17.603765zM427.203765 469.835294c-115.516235 10.24-203.203765 81.92-196.156236 157.756235s107.52 128 224 116.796236 203.836235-82.236235 196.48753-158.117647-107.52-128.316235-224-116.796236z m101.75247 178.883765A125.44 125.44 0 0 1 379.482353 712.643765a85.76 85.76 0 0 1-55.04-122.24753 128 128 0 0 1 141.432471-61.44 86.076235 86.076235 0 0 1 63.367529 119.356236zM512 0C229.225412 0 0 229.225412 0 512s229.225412 512 512 512 512-229.225412 512-512S794.774588 0 512 0z m-56.32 794.88c-145.603765 0-295.68-70.083765-295.68-186.88 0-60.476235 38.4-130.243765 104.327529-196.156235C352.647529 323.764706 456.282353 283.843765 494.08 322.56a79.691294 79.691294 0 0 1 7.68 81.603765c-5.752471 17.603765 16.64 7.996235 16.64 7.996235 71.363765-29.756235 133.436235-32 156.476235 0a72.628706 72.628706 0 0 1 0 69.436235c-5.12 12.8 0 15.058824 11.52 17.92a106.24 106.24 0 0 1 84.796236 96c1.611294 88.967529-125.168941 199.363765-315.512471 199.363765z m263.047529-367.043765a43.851294 43.851294 0 0 0-9.291294-43.836235 44.468706 44.468706 0 0 0-41.923764-13.432471 23.070118 23.070118 0 0 1-9.60753-45.17647A90.232471 90.232471 0 0 1 762.88 441.223529a23.04 23.04 0 0 1-43.836235-14.08z m134.716236 43.203765a26.925176 26.925176 0 0 1-51.2-16.564706 131.523765 131.523765 0 0 0-152.952471-168.96 26.88 26.88 0 1 1-11.203765-52.163765 185.223529 185.223529 0 0 1 215.341177 237.763765z m0 0" fill="#2C2B3D" p-id="4789"></path></svg>