<?xml version="1.0" standalone="no"?><!DOCTYPE svg PUBLIC "-//W3C//DTD SVG 1.1//EN" "http://www.w3.org/Graphics/SVG/1.1/DTD/svg11.dtd"><svg t="1568038855162" class="icon" viewBox="0 0 1024 1024" version="1.1" xmlns="http://www.w3.org/2000/svg" p-id="1990" xmlns:xlink="http://www.w3.org/1999/xlink" width="100" height="100"><defs><style type="text/css"></style></defs><path d="M457.931059 246.075465 457.931059 246.075465c14.174837-14.052041 33.873482-22.269189 54.004985-22.269189l0 0c20.262486 0 39.896662 8.216125 54.135968 22.269189l369.966123 370.09506 0 0c29.865191 29.858028 29.865191 78.347392 0 108.204397l0 0c-29.913287 29.79356-78.218456 29.79356-108.075461 0L511.936043 408.53658 196.163193 724.374922l0 0c-29.984918 29.797653-78.285994 29.797653-108.204397-0.127913l0 0c-29.863145-29.730115-29.863145-78.219479 0-108.076484L457.931059 246.075465 457.931059 246.075465zM457.931059 246.075465" p-id="1991"></path></svg>