<?xml version="1.0" standalone="no"?><!DOCTYPE svg PUBLIC "-//W3C//DTD SVG 1.1//EN" "http://www.w3.org/Graphics/SVG/1.1/DTD/svg11.dtd"><svg t="1567211969641" class="icon" viewBox="0 0 1024 1024" version="1.1" xmlns="http://www.w3.org/2000/svg" p-id="2174" width="32" height="32" xmlns:xlink="http://www.w3.org/1999/xlink"><defs><style type="text/css"></style></defs><path d="M516.266667 512m-469.333334 0a469.333333 469.333333 0 1 0 938.666667 0 469.333333 469.333333 0 1 0-938.666667 0Z" fill="#3FCF56" p-id="2175"></path><path d="M626.935467 410.8032c7.159467 0 14.2336 0.529067 21.265066 1.3056-19.106133-88.968533-114.218667-155.0592-222.779733-155.0592-121.3696 0-220.8 82.730667-220.8 187.776 0 60.637867 33.0752 110.429867 88.362667 149.0432l-22.084267 66.423467 77.166933-38.7072c27.639467 5.469867 49.783467 11.0848 77.346134 11.0848 6.929067 0 13.7984-0.341333 20.625066-0.878934a164.283733 164.283733 0 0 1-6.818133-46.2592c0-96.452267 82.824533-174.728533 187.716267-174.728533z m-118.724267-59.869867c16.6144 0 27.630933 10.9312 27.630933 27.554134 0 16.546133-11.016533 27.630933-27.630933 27.630933-16.546133 0-33.152-11.0848-33.152-27.630933 0-16.6144 16.605867-27.554133 33.152-27.554134z m-154.5216 55.185067c-16.546133 0-33.2544-11.0848-33.2544-27.630933 0-16.6144 16.708267-27.554133 33.2544-27.554134s27.562667 10.9312 27.562667 27.554134c0 16.546133-11.008 27.630933-27.562667 27.630933z" fill="#FFFFFF" p-id="2176"></path><path d="M828.4416 582.8864c0-88.2688-88.328533-160.221867-187.5456-160.221867-105.0624 0-187.793067 71.9616-187.793067 160.221867 0 88.4224 82.7392 160.221867 187.793067 160.221867 21.9904 0 44.1856-5.5552 66.261333-11.0848l60.561067 33.169066-16.605867-55.176533c44.322133-33.245867 77.329067-77.3376 77.329067-127.1296z m-248.413867-27.630933c-10.999467 0-22.101333-10.9312-22.101333-22.0928 0-10.999467 11.101867-22.075733 22.101333-22.075734 16.6912 0 27.630933 11.076267 27.630934 22.075734 0 11.1616-10.939733 22.0928-27.630934 22.0928z m121.437867 0c-10.922667 0-21.9392-10.9312-21.9392-22.0928 0-10.999467 11.016533-22.075733 21.9392-22.075734 16.546133 0 27.630933 11.076267 27.630933 22.075734 0 11.1616-11.076267 22.0928-27.630933 22.0928z" fill="#FFFFFF" p-id="2177"></path></svg>